<?xml version="1.0" encoding="UTF-8"?>
<svg width="220px" height="138px" viewBox="0 0 220 138" version="1.1" xmlns="http://www.w3.org/2000/svg" xmlns:xlink="http://www.w3.org/1999/xlink">
    <!-- Generator: Sketch 40.1 (33804) - http://www.bohemiancoding.com/sketch -->
    <title>Shape</title>
    <desc>Created with Sketch.</desc>
    <defs></defs>
    <g id="Page-1" stroke="none" stroke-width="1" fill="none" fill-rule="evenodd">
        <g id="Desktop-HD" transform="translate(-21.000000, -76.000000)" fill="#81019B">
            <g id="quad" transform="translate(21.000000, 76.000000)">
                <g id="Capa_1" transform="translate(0.000000, 0.000000)">
                    <g id="Group">
                        <path d="M215.702795,8.35250633 L177.581884,8.35250633 L177.581884,3.91523734 C177.581884,1.75298227 175.992171,0 174.030246,0 C172.068321,0 170.478608,1.75298227 170.478608,3.91523734 L170.478608,8.35250633 L132.357697,8.35250633 C130.395773,8.35250633 128.80606,10.1054886 128.80606,12.2677437 C128.80606,14.4299987 130.395773,16.182981 132.357697,16.182981 L162.901781,16.182981 L162.901781,25.0705698 C162.823172,25.0648274 162.745036,25.057519 162.665005,25.057519 L56.5894269,25.057519 C56.5093967,25.057519 56.4312607,25.0648274 56.3526511,25.0705698 L56.3526511,16.182981 L86.8967351,16.182981 C88.8586597,16.182981 90.4483727,14.4299987 90.4483727,12.2677437 C90.4483727,10.1054886 88.8586597,8.35250633 86.8967351,8.35250633 L48.775824,8.35250633 L48.775824,3.91523734 C48.775824,1.75298227 47.186111,0 45.2241864,0 C43.2622617,0 41.6725487,1.75298227 41.6725487,3.91523734 L41.6725487,8.35250633 L3.55163767,8.35250633 C1.58971302,8.35250633 0,10.1054886 0,12.2677437 C0,14.4299987 1.58971302,16.182981 3.55163767,16.182981 L34.0957217,16.182981 L34.0957217,28.9727563 C34.0957217,34.3684754 37.2732535,38.9581776 41.6725487,40.596313 L41.6725487,45.677769 C41.6725487,47.8400241 43.2622617,49.5930063 45.2241864,49.5930063 C47.186111,49.5930063 48.775824,47.8400241 48.775824,45.677769 L48.775824,40.596313 C52.0892652,39.3622301 54.7080061,36.4545139 55.7990692,32.7877636 C56.0533664,32.8514515 56.3171347,32.8885157 56.5894269,32.8885157 L76.4710211,32.8885157 L77.4536408,37.7627252 C73.2863859,38.5421184 69.9004914,41.8810328 68.6806222,46.2577462 C60.1178606,47.9762743 51.097648,56.5433357 49.5041465,67.370272 C44.9722569,68.9222721 41.6725487,73.5881909 41.6725487,79.0877943 C41.6725487,84.4835134 44.8500805,89.0732156 49.2493757,90.7113509 L49.2493757,100.874785 C44.8500805,102.51292 41.6725487,107.102623 41.6725487,112.498342 L41.6725487,115.750599 L38.2591881,123.276207 C38.0124677,123.819642 37.8841352,124.418412 37.8841352,125.026579 L37.8841352,133.379085 C37.8841352,135.541341 39.4738482,137.294323 41.4357729,137.294323 C43.3976975,137.294323 44.9874105,135.541341 44.9874105,133.379085 L44.9874105,125.951097 L47.4190985,120.58931 L58.1829284,120.58931 L60.6146163,125.951097 L60.6146163,133.379085 C60.6146163,135.541341 62.2043293,137.294323 64.166254,137.294323 C66.1281786,137.294323 67.7178916,135.541341 67.7178916,133.379085 L67.7178916,125.026579 C67.7178916,124.418412 67.5895591,123.81912 67.3428387,123.275685 L63.9294781,115.750077 L63.9294781,112.49782 C63.9294781,107.102101 60.7519463,102.512398 56.3526511,100.874263 L56.3526511,90.7108289 C60.7519463,89.0726936 63.9294781,84.4829914 63.9294781,79.0872723 C63.9294781,73.8351119 60.91911,69.3451177 56.7011851,67.5989219 C58.1133163,61.1476548 63.6259315,55.7127833 68.9136096,54.1947153 C70.5075846,58.8230479 74.569711,62.1217658 79.319908,62.1217658 L82.4335104,62.1217658 C83.0107699,64.0282254 83.978236,65.7002928 85.228886,67.0366938 L79.0272531,73.8732202 C76.9256307,76.1899966 75.7677968,79.2710274 75.7677968,82.5478201 L75.7677968,87.7013165 L71.7426074,87.7013165 C69.7806828,87.7013165 68.1909698,89.4542987 68.1909698,91.6165538 C68.1909698,93.7788089 69.7806828,95.5317911 71.7426074,95.5317911 L86.8962615,95.5317911 C88.8581862,95.5317911 90.4478992,93.7788089 90.4478992,91.6165538 C90.4478992,89.4542987 88.8581862,87.7013165 86.8962615,87.7013165 L82.8715457,87.7013165 L82.8715457,82.547298 C82.8715457,81.3617642 83.2901654,80.2477486 84.0506894,79.4093658 L92.1896223,70.4372079 C92.4496022,70.4570451 92.7100556,70.4737501 92.9742974,70.4737501 L126.279188,70.4737501 C126.54343,70.4737501 126.804357,70.4565231 127.063863,70.4372079 L135.202796,79.4093658 C135.96332,80.2472266 136.38194,81.3617642 136.38194,82.547298 L136.38194,87.7013165 L132.35675,87.7013165 C130.394826,87.7013165 128.805113,89.4542987 128.805113,91.6165538 C128.805113,93.7788089 130.394826,95.5317911 132.35675,95.5317911 L147.510404,95.5317911 C149.472329,95.5317911 151.062042,93.7788089 151.062042,91.6165538 C151.062042,89.4542987 149.472329,87.7013165 147.510404,87.7013165 L143.486162,87.7013165 L143.486162,82.547298 C143.486162,79.2705054 142.328802,76.1894746 140.226706,73.8726982 L134.025073,67.0361717 C135.275723,65.6997707 136.243189,64.0282254 136.820448,62.1212438 L139.934051,62.1212438 C144.684248,62.1212438 148.746374,58.8225258 150.340349,54.1952373 C155.628027,55.7133053 161.140643,61.1481768 162.552774,67.5994439 C158.335322,69.3456397 155.324954,73.8356339 155.324954,79.0877943 C155.324954,84.4835134 158.502486,89.0732156 162.901781,90.7113509 L162.901781,100.874785 C158.502486,102.51292 155.324954,107.102623 155.324954,112.498342 L155.324954,115.750599 L151.911594,123.276207 C151.664873,123.820164 151.536541,124.418934 151.536541,125.027101 L151.536541,133.379607 C151.536541,135.541863 153.126254,137.294845 155.088178,137.294845 C157.050103,137.294845 158.639816,135.541863 158.639816,133.379607 L158.639816,125.951619 L161.071504,120.58931 L171.835334,120.58931 L174.267022,125.951097 L174.267022,133.379085 C174.267022,135.541341 175.856735,137.294323 177.818659,137.294323 C179.780584,137.294323 181.370297,135.541341 181.370297,133.379085 L181.370297,125.026579 C181.370297,124.418412 181.241965,123.81912 180.995244,123.275685 L177.581884,115.750077 L177.581884,112.49782 C177.581884,107.102101 174.404352,102.512398 170.005057,100.874263 L170.005057,90.7108289 C174.404352,89.0726936 177.581884,84.4829914 177.581884,79.0872723 C177.581884,73.5876689 174.282175,68.92175 169.750759,67.3692279 C168.157258,56.5422916 159.137045,47.9752303 150.574284,46.2567021 C149.354415,41.8799888 145.968046,38.5405523 141.801265,37.7616811 L142.783885,32.8874716 L162.665005,32.8874716 C162.936824,32.8874716 163.201066,32.8504074 163.455363,32.7867195 C164.546426,36.4534698 167.165167,39.3617081 170.478608,40.5952689 L170.478608,45.6767249 C170.478608,47.83898 172.068321,49.5919623 174.030246,49.5919623 C175.992171,49.5919623 177.581884,47.83898 177.581884,45.6767249 L177.581884,40.5952689 C181.981179,38.9571336 185.158711,34.3674314 185.158711,28.9717123 L185.158711,16.182981 L215.702795,16.182981 C217.664719,16.182981 219.254432,14.4299987 219.254432,12.2677437 C219.254432,10.1054886 217.664719,8.35250633 215.702795,8.35250633 L215.702795,8.35250633 Z M45.2241864,33.4100253 C43.0046496,33.4100253 41.198997,31.4195187 41.198997,28.9727563 L41.198997,16.182981 L49.2493757,16.182981 L49.2493757,28.9727563 C49.2493757,31.4195187 47.4437231,33.4100253 45.2241864,33.4100253 L45.2241864,33.4100253 Z M56.8262028,112.758835 L48.775824,112.758835 L48.775824,112.49782 C48.775824,110.051057 50.5814766,108.060551 52.8010134,108.060551 C55.0205502,108.060551 56.8262028,110.051057 56.8262028,112.49782 L56.8262028,112.758835 L56.8262028,112.758835 Z M52.8010134,83.5250633 C50.5814766,83.5250633 48.775824,81.5345566 48.775824,79.0877943 C48.775824,76.641032 50.5814766,74.6505253 52.8010134,74.6505253 C55.0205502,74.6505253 56.8262028,76.641032 56.8262028,79.0877943 C56.8262028,81.5345566 55.0205502,83.5250633 52.8010134,83.5250633 L52.8010134,83.5250633 Z M170.478608,112.758835 L162.42823,112.758835 L162.42823,112.49782 C162.42823,110.051057 164.233882,108.060551 166.453419,108.060551 C168.672956,108.060551 170.478608,110.051057 170.478608,112.49782 L170.478608,112.758835 L170.478608,112.758835 Z M166.453419,83.5250633 C164.233882,83.5250633 162.42823,81.5345566 162.42823,79.0877943 C162.42823,76.641032 164.233882,74.6505253 166.453419,74.6505253 C168.672956,74.6505253 170.478608,76.641032 170.478608,79.0877943 C170.478608,81.5345566 168.672956,83.5250633 166.453419,83.5250633 L166.453419,83.5250633 Z M75.2947187,49.8540222 C75.2947187,47.526283 76.9303662,45.6151252 79.0002606,45.4345022 L80.7855505,54.2912911 L79.319908,54.2912911 C77.1003713,54.2912911 75.2947187,52.3007845 75.2947187,49.8540222 L75.2947187,49.8540222 Z M143.959714,49.8540222 C143.959714,52.3007845 142.154061,54.2912911 139.934524,54.2912911 L138.468882,54.2912911 L140.254172,45.4345022 C142.324066,45.6151252 143.959714,47.526283 143.959714,49.8540222 L143.959714,49.8540222 Z M130.209193,59.1691548 C129.79673,61.2149969 128.180971,62.6437975 126.279661,62.6437975 L92.974771,62.6437975 C91.073461,62.6437975 89.4577026,61.2149969 89.0452391,59.1691548 L83.7471428,32.8879937 L135.506816,32.8879937 L130.209193,59.1691548 L130.209193,59.1691548 Z M178.055435,28.9727563 C178.055435,31.4195187 176.249783,33.4100253 174.030246,33.4100253 C171.810709,33.4100253 170.005057,31.4195187 170.005057,28.9727563 L170.005057,16.182981 L178.055435,16.182981 L178.055435,28.9727563 L178.055435,28.9727563 Z" id="Shape"></path>
                    </g>
                </g>
            </g>
        </g>
    </g>
</svg>