<?xml version="1.0" encoding="UTF-8"?>
<svg width="205px" height="242px" viewBox="0 0 205 242" version="1.1" xmlns="http://www.w3.org/2000/svg" xmlns:xlink="http://www.w3.org/1999/xlink">
    <!-- Generator: Sketch 40.1 (33804) - http://www.bohemiancoding.com/sketch -->
    <title>robowar</title>
    <desc>Created with Sketch.</desc>
    <defs></defs>
    <g id="Page-1" stroke="none" stroke-width="1" fill="none" fill-rule="evenodd">
        <g id="Desktop-HD" transform="translate(-464.000000, -269.000000)" fill="#81019B">
            <g id="robowar" transform="translate(464.000000, 269.000000)">
                <g id="Capa_1">
                    <g id="Group">
                        <path d="M204.05295,182.850458 L201.319609,164.77198 C200.796335,161.310389 199.004889,158.410503 196.524425,156.586002 L196.524425,134.235739 C198.844355,131.985783 200.312838,128.692285 200.312838,125.026057 L200.312838,116.673551 C200.312838,113.007323 198.844355,109.713825 196.524425,107.463868 L196.524425,75.2425092 L198.349493,74.2365542 C199.552314,73.573574 200.312838,72.2178579 200.312838,70.734766 L200.312838,53.9389198 C200.312838,47.3519245 196.764042,41.4190348 191.271789,38.8245375 L176.921279,32.0449126 C174.64681,30.9700494 172.055062,31.2248009 169.988956,32.7272079 C167.923323,34.229093 166.690195,36.75416 166.690195,39.4817754 L166.690195,41.7625316 L146.307109,41.7625316 L133.77267,7.71145147 C132.072619,3.02673948 128.016649,0 123.439298,0 L80.66148,0 C76.0841293,0 72.0286327,3.02673948 70.3352118,7.69318036 L57.7941424,41.7625316 L37.411057,41.7625316 L37.411057,39.4817754 C37.411057,36.753638 36.1779284,34.2285709 34.1118224,32.7272079 C32.0457164,31.2253229 29.4530209,30.9700494 27.1794992,32.0449126 L12.8294624,38.8250596 C7.33768343,41.4195569 3.78841352,47.3524465 3.78841352,53.9394418 L3.78841352,70.735288 C3.78841352,72.2183799 4.54846398,73.5740961 5.75175882,74.2370763 L7.57682704,75.2430312 L7.57682704,107.464391 C5.25689731,109.714347 3.78841352,113.007845 3.78841352,116.674073 L3.78841352,125.026579 C3.78841352,128.692807 5.25689731,131.986305 7.57682704,134.236261 L7.57682704,156.586524 C5.09636328,158.411025 3.30491724,161.310911 2.78116907,164.772503 L0.0483022724,182.850458 C-0.123123439,183.985877 0.167163746,185.146354 0.841974904,186.024933 C1.51678606,186.903512 2.5074562,187.409361 3.55163767,187.409361 L5.43921471,187.409361 L11.9614421,198.194535 C12.6457243,199.326299 13.7718302,199.938642 14.9197195,199.938642 C15.5968985,199.938642 16.2811806,199.725653 16.8863797,199.28036 C18.5182388,198.081254 18.959589,195.650152 17.8713672,193.851231 L13.9764046,187.409361 L14.9168782,187.409361 C16.2622386,187.409361 17.4920523,186.5715 18.093463,185.245018 L20.9002038,179.056854 L24.0872067,179.056854 L26.8939476,185.245018 C27.4958318,186.5715 28.7256455,187.409361 30.0705323,187.409361 L31.011006,187.409361 L27.1150962,193.851231 C26.0268744,195.650152 26.4682246,198.081254 28.1000837,199.28036 C28.7052828,199.725653 29.3900385,199.938642 30.0667439,199.938642 C31.2146332,199.938642 32.3407391,199.326299 33.0250213,198.194535 L39.5481958,187.409361 L41.4357729,187.409361 C42.4799543,187.409361 43.471098,186.90299 44.1459092,186.024933 C44.8207203,185.146876 45.1110075,183.985877 44.9395818,182.850458 L42.2062414,164.77198 C41.6829668,161.310389 39.8915208,158.410503 37.411057,156.586002 L37.411057,91.6870281 L41.6730222,94.0361705 L41.6730222,95.792807 C41.6730222,109.465338 51.7639352,120.58931 64.1667275,120.58931 L68.1919169,120.58931 L68.1919169,138.460541 C63.7926217,140.098677 60.6150898,144.688379 60.6150898,150.084098 L60.6150898,158.436604 C60.6150898,165.201091 65.6072717,170.704348 71.7435545,170.704348 L71.9803304,170.704348 L71.9803304,187.670377 C71.9803304,188.902893 72.5064463,190.062848 73.4009855,190.802566 L79.56284,195.897073 C79.5614194,195.939358 79.5571574,195.980598 79.5571574,196.022883 L79.5571574,208.812658 L65.0612667,208.812658 C60.8187171,208.812658 57.0047318,211.411332 55.1076837,215.594371 L45.8364887,236.03452 C45.2857481,237.248244 45.344942,238.689573 45.9918137,239.843785 C46.6386853,240.997997 47.781839,241.700652 49.0130734,241.700652 L67.9451964,241.700652 C67.9475642,241.700652 67.9494584,241.701174 67.9518262,241.701174 C67.9541939,241.701174 67.9570352,241.700652 67.959403,241.700652 L90.6851486,241.700652 C92.6470732,241.700652 94.2367863,239.94767 94.2367863,237.785415 L94.2367863,212.727896 C94.2367863,210.565641 92.6470732,208.812658 90.6851486,208.812658 L86.6599592,208.812658 L86.6599592,199.93551 C86.7366746,199.93812 86.8129164,199.945951 86.8891582,199.945951 C88.0067402,199.945951 89.1314255,199.661444 90.1789218,199.084599 C92.6816425,197.704869 94.2363127,194.931837 94.2363127,191.847152 L94.2363127,170.704348 L94.4730885,170.704348 C96.4350132,170.704348 98.0247262,168.951366 98.0247262,166.789111 L98.0247262,166.528095 L105.838329,166.528095 C105.918359,166.528095 105.996495,166.520787 106.075105,166.515044 L106.075105,166.789111 C106.075105,168.951366 107.664818,170.704348 109.626743,170.704348 L109.863518,170.704348 L109.863518,191.84663 C109.863518,194.931315 111.418189,197.704347 113.920909,199.084077 C114.968406,199.661444 116.093091,199.945429 117.210673,199.945429 C117.287388,199.945429 117.36363,199.93812 117.439872,199.934988 L117.439872,208.812658 L113.414683,208.812658 C111.452758,208.812658 109.863045,210.565641 109.863045,212.727896 L109.863045,237.785415 C109.863045,239.94767 111.452758,241.700652 113.414683,241.700652 L136.140902,241.700652 C136.143269,241.700652 136.146111,241.701174 136.148479,241.701174 C136.150846,241.701174 136.152741,241.700652 136.155108,241.700652 L155.088178,241.700652 C156.319413,241.700652 157.462567,240.997997 158.109438,239.843785 C158.75631,238.689573 158.815504,237.248244 158.264763,236.03452 L148.993568,215.594371 C147.09652,211.411332 143.282535,208.812658 139.039985,208.812658 L124.544094,208.812658 L124.544094,196.022883 C124.544094,195.980598 124.539359,195.939358 124.538412,195.897073 L130.700266,190.802566 C131.594806,190.062848 132.120921,188.902893 132.120921,187.670377 L132.120921,170.704348 L132.357697,170.704348 C138.49398,170.704348 143.486162,165.201091 143.486162,158.436604 L143.486162,150.084098 C143.486162,144.688379 140.30863,140.098677 135.909335,138.460541 L135.909335,120.58931 L139.934524,120.58931 C152.337317,120.58931 162.42823,109.465338 162.42823,95.792807 L162.42823,94.0361705 L166.690195,91.6870281 L166.690195,156.586002 C164.209731,158.410503 162.418285,161.310389 161.894537,164.77198 L159.16167,182.849936 C158.990244,183.985355 159.280531,185.145832 159.955343,186.024411 C160.630154,186.90299 161.620824,187.409361 162.665005,187.409361 L164.552582,187.409361 L171.07481,198.194535 C171.759092,199.326299 172.885198,199.938642 174.033087,199.938642 C174.710266,199.938642 175.394548,199.725653 175.999747,199.28036 C177.631607,198.081254 178.072957,195.650152 176.984735,193.851231 L173.089772,187.409361 L174.030246,187.409361 C175.375606,187.409361 176.60542,186.5715 177.206831,185.245018 L180.013572,179.056854 L183.200574,179.056854 L186.007315,185.245018 C186.6092,186.5715 187.83854,187.409361 189.1839,187.409361 L190.124374,187.409361 L186.228464,193.851231 C185.140242,195.650152 185.581592,198.081254 187.213451,199.28036 C187.818651,199.725653 188.503406,199.938642 189.180112,199.938642 C190.328001,199.938642 191.454107,199.326299 192.138389,198.194535 L198.661564,187.409361 L200.549141,187.409361 C201.593322,187.409361 202.584466,186.90299 203.259277,186.024933 C203.934088,185.146876 204.224375,183.985877 204.05295,182.850458 L204.05295,182.850458 Z M76.92421,10.6196898 C77.5388801,8.92517505 79.0059433,7.83047468 80.6619535,7.83047468 L123.439772,7.83047468 C125.095309,7.83047468 126.562845,8.92517505 127.184145,10.6379609 L134.029335,29.2337722 L70.0719171,29.2337722 L76.92421,10.6196898 L76.92421,10.6196898 Z M67.2206624,36.9796777 C67.4574382,37.034491 67.7032115,37.0642468 67.9546675,37.0642468 L136.146111,37.0642468 C136.39804,37.0642468 136.64334,37.034491 136.880589,36.9796777 L138.641255,41.7625316 L102.050389,41.7625316 L65.4595236,41.7625316 L67.2206624,36.9796777 L67.2206624,36.9796777 Z M89.2971686,83.0949092 C88.5186496,84.5049167 87.9304984,86.0553507 87.5644429,87.7007944 L79.3592128,87.7007944 C79.9341046,83.6367781 81.3912231,79.8927671 83.5037372,76.707852 L89.2971686,83.0949092 L89.2971686,83.0949092 Z M88.5267,71.1706624 C91.4158388,68.8418792 94.8126251,67.2355878 98.499225,66.6018414 L98.499225,75.6470837 C97.0065901,76.0506142 95.6001416,76.6989775 94.3206049,77.5571975 L88.5267,71.1706624 L88.5267,71.1706624 Z M87.5644429,95.5312691 C87.9304984,97.1772349 88.5191232,98.7281909 89.2976421,100.13872 L83.5042108,106.525778 C81.3916967,103.340341 79.9341046,99.5958075 79.3596864,95.5312691 L87.5644429,95.5312691 L87.5644429,95.5312691 Z M94.3201314,105.675388 C95.599668,106.533608 97.0061165,107.181971 98.4987515,107.585502 L98.4987515,116.630744 C94.8121516,115.996998 91.4153653,114.390706 88.5262264,112.061923 L94.3201314,105.675388 L94.3201314,105.675388 Z M94.2367863,91.6165538 C94.2367863,86.8671099 97.7420159,83.0030317 102.050389,83.0030317 C106.358762,83.0030317 109.863992,86.8671099 109.863992,91.6165538 C109.863992,96.3659977 106.358762,100.230076 102.050389,100.230076 C97.7420159,100.230076 94.2367863,96.3659977 94.2367863,91.6165538 L94.2367863,91.6165538 Z M109.78112,77.5577196 C108.501584,76.6994995 107.095135,76.0511362 105.6025,75.6476058 L105.6025,66.6023634 C109.2891,67.2361099 112.685887,68.8424012 115.575025,71.1711844 L109.78112,77.5577196 L109.78112,77.5577196 Z M120.597515,76.707852 C122.710029,79.8927671 124.167147,83.6373001 124.742039,87.7007944 L116.536809,87.7007944 C116.170753,86.0553507 115.582602,84.5049167 114.804083,83.0949092 L120.597515,76.707852 L120.597515,76.707852 Z M105.602027,107.586024 C107.094662,107.182493 108.50111,106.53413 109.780647,105.67591 L115.574078,112.062967 C112.684939,114.39175 109.288153,115.998042 105.601553,116.631788 L105.601553,107.586024 L105.602027,107.586024 Z M114.804083,100.138198 C115.582602,98.7276689 116.170753,97.1767129 116.537282,95.5312691 L124.742513,95.5312691 C124.167621,99.5958075 122.710502,103.340341 120.597988,106.525256 L114.804083,100.138198 L114.804083,100.138198 Z M121.976971,66.8200506 C116.667036,61.628968 109.689251,58.4675443 102.050863,58.4675443 C94.4124739,58.4675443 87.4342162,61.628968 82.1247547,66.8200506 L75.5314945,66.8200506 C73.3119577,66.8200506 71.5063051,64.829544 71.5063051,62.3827817 L71.5063051,49.5930063 L102.050389,49.5930063 L132.594473,49.5930063 L132.594473,62.3827817 C132.594473,64.829544 130.788821,66.8200506 128.569284,66.8200506 L121.976971,66.8200506 L121.976971,66.8200506 Z M10.8916889,116.674073 C10.8916889,114.22731 12.6973415,112.236804 14.9168782,112.236804 L30.3073081,112.236804 L30.3073081,129.463848 L14.9168782,129.463848 C12.6973415,129.463848 10.8916889,127.473341 10.8916889,125.026579 L10.8916889,116.674073 L10.8916889,116.674073 Z M14.6801024,104.413116 L14.6801024,79.1587906 L30.3073081,87.7723128 L30.3073081,104.406329 L14.9168782,104.406329 C14.8377951,104.406329 14.7591855,104.411027 14.6801024,104.413116 L14.6801024,104.413116 Z M30.3073081,137.294323 L30.3073081,154.521367 L14.6801024,154.521367 L14.6801024,137.287536 C14.7591855,137.289102 14.8373215,137.294323 14.9168782,137.294323 L30.3073081,137.294323 L30.3073081,137.294323 Z M32.2654444,179.578886 L29.4587035,173.390723 C28.8572929,172.064241 27.6274791,171.22638 26.2821188,171.22638 L18.7052917,171.22638 C17.3599314,171.22638 16.1301177,172.064241 15.528707,173.390723 L12.7224397,179.578886 L7.74446433,179.578886 L9.78783987,166.059833 C10.1131699,163.91115 11.7829131,162.351842 13.7585708,162.351842 L31.2293133,162.351842 C33.2049709,162.351842 34.8747142,163.91115 35.1995706,166.059833 L37.2434197,179.578886 L32.2654444,179.578886 L32.2654444,179.578886 Z M41.6725487,85.2816998 L10.8916889,68.3156713 L10.8916889,53.9394418 C10.8916889,50.4893347 12.7508528,47.3811583 15.6272058,46.0223099 L29.9777162,39.2426849 C30.0193887,39.2228477 30.0956305,39.1873495 30.2017061,39.2646102 C30.3082552,39.3418709 30.3082552,39.4332264 30.3082552,39.4822974 L30.3073081,58.9232779 C30.3073081,62.2000706 31.4646685,65.2811013 33.5667644,67.5978778 L40.493405,75.2336347 C41.253929,76.0714955 41.6725487,77.186033 41.6725487,78.3715669 L41.6725487,85.2816998 L41.6725487,85.2816998 Z M64.166254,112.758835 C55.6797341,112.758835 48.775824,105.147614 48.775824,95.792807 L48.775824,91.6165538 L48.775824,78.3710449 C48.775824,75.0942522 47.6184637,72.0132215 45.5163678,69.696445 L38.5897272,62.0606881 C37.8292032,61.2228273 37.4105835,60.1082898 37.4105835,58.9227559 L37.4105835,49.5930063 L64.4030298,49.5930063 L64.4030298,62.3827817 C64.4030298,69.1472677 69.3952117,74.6505253 75.5314945,74.6505253 L76.2299833,74.6505253 C73.534527,79.6171344 71.9803304,85.4184721 71.9798568,91.6149877 L71.9798568,91.6155097 L71.9798568,91.6155097 L71.9798568,91.6160318 C71.9798568,99.6454005 74.5843911,107.015965 78.9088652,112.758313 L64.166254,112.758313 L64.166254,112.758835 Z M87.1335109,233.870177 L74.5910209,233.870177 L77.3622453,229.287783 C77.4062856,229.215221 77.4796862,229.171892 77.5587693,229.171892 L87.1335109,229.171892 L87.1335109,233.870177 L87.1335109,233.870177 Z M87.1335109,216.643133 L87.1335109,221.341418 L77.5587693,221.341418 C75.0991418,221.341418 72.8156756,222.688781 71.4518467,224.94448 L66.0543045,233.870177 L54.7596232,233.870177 L61.4603796,219.095638 C62.146556,217.58279 63.5260121,216.643133 65.0607931,216.643133 L87.1335109,216.643133 L87.1335109,216.643133 Z M87.1335109,191.84663 C87.1335109,191.91867 87.1335109,192.007938 87.0028106,192.079978 C86.8725839,192.151496 86.8077073,192.098771 86.7551431,192.055442 L79.0831322,185.712758 L79.0831322,170.704348 L87.1335109,170.704348 L87.1335109,191.84663 L87.1335109,191.84663 Z M90.9219244,162.873873 L71.743081,162.873873 C69.5235442,162.873873 67.7178916,160.883367 67.7178916,158.436604 L67.7178916,150.084098 C67.7178916,147.637336 69.5235442,145.646829 71.743081,145.646829 L83.1083215,145.646829 C87.4166948,145.646829 90.9219244,149.510907 90.9219244,154.260351 L90.9219244,162.873873 L90.9219244,162.873873 Z M106.075578,154.260351 L106.075578,158.710671 C105.996969,158.704929 105.918833,158.69762 105.838803,158.69762 L98.0251998,158.69762 L98.0251998,154.260351 C98.0251998,152.722968 97.8286758,151.2357 97.4687765,149.823082 L106.631528,149.823082 C106.272576,151.2357 106.075578,152.722968 106.075578,154.260351 L106.075578,154.260351 Z M111.073443,141.992608 L93.0278088,141.992608 C90.3896523,139.397588 86.9142565,137.816354 83.1087951,137.816354 L75.2947187,137.816354 L75.2947187,120.58931 L86.8972086,120.58931 C87.0662666,120.58931 87.2315361,120.571561 87.3944379,120.546504 C91.7340656,123.228702 96.7314566,124.765563 102.050389,124.765563 C107.369322,124.765563 112.366713,123.228702 116.70634,120.546504 C116.869242,120.571561 117.034512,120.58931 117.20357,120.58931 L128.80606,120.58931 L128.80606,137.816354 L120.992457,137.816354 C117.186995,137.816354 113.711599,139.397588 111.073443,141.992608 L111.073443,141.992608 Z M116.967267,233.870177 L116.967267,229.171892 L126.542009,229.171892 C126.621092,229.171892 126.694493,229.215221 126.739006,229.288305 L129.510231,233.870177 L116.967267,233.870177 L116.967267,233.870177 Z M139.040459,216.643133 C140.574766,216.643133 141.954222,217.58279 142.640872,219.09616 L149.341629,233.870177 L138.047421,233.870177 L132.649879,224.945002 C131.285103,222.688781 129.00211,221.341418 126.542483,221.341418 L116.967267,221.341418 L116.967267,216.643133 L139.040459,216.643133 L139.040459,216.643133 Z M125.017646,185.712758 L117.346109,192.055442 C117.293544,192.098249 117.229141,192.151496 117.098441,192.079978 C116.967267,192.007938 116.967267,191.91867 116.967267,191.84663 L116.967267,170.704348 L125.017646,170.704348 L125.017646,185.712758 L125.017646,185.712758 Z M136.382887,150.084098 L136.382887,158.436604 C136.382887,160.883367 134.577234,162.873873 132.357697,162.873873 L113.178854,162.873873 L113.178854,154.260351 C113.178854,149.510907 116.684083,145.646829 120.992457,145.646829 L132.357697,145.646829 C134.577234,145.646829 136.382887,147.637336 136.382887,150.084098 L136.382887,150.084098 Z M158.584411,69.696445 C156.482788,72.0132215 155.324954,75.0942522 155.324954,78.3710449 L155.324954,91.6165538 L155.324954,95.792807 C155.324954,105.147614 148.421044,112.758835 139.934524,112.758835 L125.191913,112.758835 C129.516387,107.016487 132.120921,99.6459225 132.120921,91.6165538 C132.120921,91.6165538 132.120921,91.6165538 132.120921,91.6160318 L132.120921,91.6160318 L132.120921,91.6155097 C132.120921,85.4189941 130.566725,79.6171344 127.870795,74.6505253 L128.569284,74.6505253 C134.705567,74.6505253 139.697748,69.1472677 139.697748,62.3827817 L139.697748,49.5930063 L166.690195,49.5930063 L166.690195,58.9232779 C166.690195,60.1088118 166.271575,61.2228273 165.511051,62.0612102 L158.584411,69.696445 L158.584411,69.696445 Z M162.42823,85.2816998 L162.42823,78.3715669 C162.42823,77.186033 162.846849,76.0720175 163.607373,75.2336347 L170.534014,67.5978778 C172.635636,65.2811013 173.79347,62.2000706 173.79347,58.9232779 L173.79347,39.4817754 C173.79347,39.4327044 173.79347,39.3413489 173.900019,39.2640882 C174.006095,39.1868275 174.082337,39.2223257 174.124009,39.2421629 L188.473573,46.0223099 C191.349925,47.3816803 193.209089,50.4893347 193.209089,53.9394418 L193.209089,68.3156713 L162.42823,85.2816998 L162.42823,85.2816998 Z M189.1839,129.463848 L173.79347,129.463848 L173.79347,112.236804 L189.1839,112.236804 C191.403437,112.236804 193.209089,114.22731 193.209089,116.674073 L193.209089,125.026579 C193.209089,127.473341 191.403437,129.463848 189.1839,129.463848 L189.1839,129.463848 Z M189.420676,137.287536 L189.420676,154.521367 L173.79347,154.521367 L173.79347,137.294323 L189.1839,137.294323 C189.263457,137.294323 189.342066,137.289625 189.420676,137.287536 L189.420676,137.287536 Z M173.79347,104.406329 L173.79347,87.7717907 L189.420676,79.1582686 L189.420676,104.412594 C189.341593,104.411027 189.263457,104.405807 189.1839,104.405807 L173.79347,104.405807 L173.79347,104.406329 Z M191.378812,179.578886 L188.572071,173.390723 C187.970187,172.064241 186.740847,171.22638 185.395487,171.22638 L177.818659,171.22638 C176.473299,171.22638 175.243485,172.064241 174.642075,173.390723 L171.835807,179.578886 L166.857832,179.578886 L168.901208,166.059833 C169.226538,163.91115 170.896281,162.351842 172.871939,162.351842 L190.342681,162.351842 C192.318339,162.351842 193.988082,163.91115 194.312938,166.059833 L196.356787,179.578886 L191.378812,179.578886 L191.378812,179.578886 Z" id="Shape"></path>
                        <path d="M117.204043,16.7050127 L86.8967351,16.7050127 C84.9348104,16.7050127 83.3450974,18.4579949 83.3450974,20.62025 C83.3450974,22.7825051 84.9348104,24.5354873 86.8967351,24.5354873 L117.204043,24.5354873 C119.165968,24.5354873 120.755681,22.7825051 120.755681,20.62025 C120.755681,18.4579949 119.165968,16.7050127 117.204043,16.7050127 L117.204043,16.7050127 Z" id="Shape"></path>
                    </g>
                </g>
            </g>
        </g>
    </g>
</svg>