<?xml version="1.0" encoding="UTF-8"?>
<svg width="182px" height="242px" viewBox="0 0 182 242" version="1.1" xmlns="http://www.w3.org/2000/svg" xmlns:xlink="http://www.w3.org/1999/xlink">
    <!-- Generator: Sketch 40.1 (33804) - http://www.bohemiancoding.com/sketch -->
    <title>robotfootball</title>
    <desc>Created with Sketch.</desc>
    <defs></defs>
    <g id="Page-1" stroke="none" stroke-width="1" fill="none" fill-rule="evenodd">
        <g id="Desktop-HD" transform="translate(-1089.000000, -186.000000)" fill="#81019B">
            <g id="robotfootball" transform="translate(1089.438301, 186.000000)">
                <g id="Capa_1">
                    <g id="Group">
                        <path d="M180.839919,56.1481577 C180.193048,54.9939457 179.049894,54.2912911 177.818659,54.2912911 L143.476691,54.2912911 C143.536832,53.2962988 143.252227,52.3065268 142.667865,51.5297437 C141.993054,50.6334154 140.991492,50.115038 139.934998,50.115038 L127.517999,50.115038 C128.057848,47.2976332 128.332981,44.4165405 128.332981,41.5015158 C128.332508,18.6177366 111.444234,0 90.6851486,0 C69.9260632,0 53.0377892,18.6177366 53.0377892,41.5015158 C53.0377892,44.4165405 53.3124492,47.2976332 53.8522982,50.115038 L41.4357729,50.115038 C40.379279,50.115038 39.3772437,50.6334154 38.702906,51.5297437 C38.1185433,52.3060048 37.8334651,53.2962988 37.8940798,54.2912911 L3.55163767,54.2912911 C2.32040328,54.2912911 1.1772495,54.9939457 0.530377892,56.1481577 C-0.116493716,57.3023697 -0.175687677,58.7436991 0.375052938,59.9574226 L6.90438364,74.3529673 C8.1555072,77.1124266 10.6710138,78.8267785 13.4697043,78.8267785 L13.6359209,78.8267785 L7.75582957,114.47893 C7.75251471,114.498245 7.75204116,114.517038 7.74919985,114.535831 C7.63838876,115.230655 7.57682704,115.944273 7.57682704,116.674073 C7.57682704,122.326631 11.0635881,127.095913 15.7901075,128.511662 L25.9814135,177.194246 L20.9054129,179.991813 C19.7025916,180.654793 18.9420676,182.010509 18.9420676,183.493601 L18.9420676,196.022361 C18.9420676,197.505453 19.7021181,198.861169 20.9054129,199.524149 L28.4822399,203.700402 C28.9922551,203.981777 29.5344718,204.114373 30.0681645,204.114373 C31.3709052,204.114373 32.6253437,203.320885 33.2475906,201.949508 C34.1250819,200.015381 33.4138072,197.663628 31.6592982,196.696826 L26.0453429,193.603266 L26.0453429,185.914262 L30.0705323,183.695628 L34.0957217,185.914262 L34.0957217,191.84663 C34.0957217,194.008885 35.6854347,195.761867 37.6473593,195.761867 C39.609284,195.761867 41.198997,194.008885 41.198997,191.84663 L41.198997,183.494123 C41.198997,182.011032 40.4389465,180.655315 39.2356517,179.992335 L33.1547745,176.64037 L22.9729396,128.00216 C26.3900886,126.431888 28.9477412,123.036072 29.6424416,118.925595 C29.6457564,118.906802 29.6509655,118.888531 29.6542804,118.869216 L36.2589058,78.8267785 L42.0400248,78.8267785 L55.7910188,159.674341 C58.0148175,172.751234 66.0060023,183.284267 76.5292679,188.335967 C69.2441487,193.492074 64.4030298,202.495553 64.4030298,212.727896 C64.4030298,228.70363 76.1930462,241.700652 90.6851486,241.700652 C105.177251,241.700652 116.967267,228.70363 116.967267,212.727896 C116.967267,202.495553 112.126148,193.492074 104.841029,188.335967 C115.364295,183.284267 123.35548,172.750712 125.579278,159.674341 L139.330272,78.8267785 L145.111391,78.8267785 L151.716017,118.869216 C151.719332,118.888531 151.724541,118.906802 151.727856,118.925595 C152.422556,123.036072 154.980682,126.431888 158.397358,128.00216 L148.215523,176.64037 L142.134645,179.992335 C140.931824,180.655315 140.1713,182.011032 140.1713,183.494123 L140.1713,191.84663 C140.1713,194.008885 141.761013,195.761867 143.722938,195.761867 C145.684862,195.761867 147.274576,194.008885 147.274576,191.84663 L147.274576,185.91374 L151.299765,183.695106 L155.324954,185.91374 L155.324954,193.602744 L149.711472,196.696826 C147.957437,197.663628 147.246162,200.015381 148.12318,201.949508 C148.744953,203.321407 149.999865,204.114895 151.302606,204.114373 C151.836299,204.114373 152.378042,203.981255 152.888531,203.700402 L160.465358,199.524149 C161.668179,198.861169 162.428703,197.505453 162.428703,196.022361 L162.428703,183.493601 C162.428703,182.010509 161.668653,180.654793 160.465358,179.991813 L155.389357,177.194246 L165.580663,128.511662 C170.306709,127.095913 173.79347,122.326631 173.79347,116.674073 C173.79347,115.944273 173.731908,115.230655 173.620624,114.535831 C173.617782,114.517038 173.616835,114.497723 173.613994,114.47893 L167.733903,78.8267785 L167.900119,78.8267785 C170.69881,78.8267785 173.21479,77.1124266 174.464966,74.3540113 L180.994771,59.9574226 C181.545985,58.7436991 181.486791,57.3023697 180.839919,56.1481577 L180.839919,56.1481577 Z M60.1410646,41.5015158 C60.1410646,22.9354604 73.8432827,7.83047468 90.6851486,7.83047468 C107.527014,7.83047468 121.229233,22.9354604 121.229233,41.5015158 C121.229233,44.4327235 120.888749,47.3185145 120.21962,50.115038 L61.1511503,50.115038 C60.4815483,47.3185145 60.1410646,44.4322015 60.1410646,41.5015158 L60.1410646,41.5015158 Z M122.768276,57.9455127 C122.791953,57.9460347 122.816104,57.9486449 122.839782,57.9486449 C122.853041,57.9486449 122.865354,57.9455127 122.878613,57.9455127 L135.654564,57.9455127 L134.855209,62.6437975 L119.940225,62.6437975 C114.386884,62.6437975 109.75839,67.0377378 108.934884,73.0917388 L100.22248,137.126229 C99.5093108,142.36586 95.503537,146.168861 90.6737833,146.168861 C85.8672337,146.168861 81.8614599,142.36586 81.1482911,137.126229 L72.4354136,73.0917388 C71.6114336,67.0377378 66.9824659,62.6437975 61.4295987,62.6437975 L46.5146147,62.6437975 L45.7152595,57.9455127 L122.768276,57.9455127 L122.768276,57.9455127 Z M18.7052917,112.236804 C20.9248285,112.236804 22.7304811,114.22731 22.7304811,116.674073 C22.7304811,119.120835 20.9248285,121.111342 18.7052917,121.111342 C16.485755,121.111342 14.6801024,119.120835 14.6801024,116.674073 C14.6801024,114.22731 16.485755,112.236804 18.7052917,112.236804 L18.7052917,112.236804 Z M24.52098,106.219867 C22.8275592,105.070875 20.8358008,104.406329 18.7052917,104.406329 C17.9854932,104.406329 17.2822689,104.484634 16.6003545,104.629237 L20.8561635,78.8267785 L29.0391367,78.8267785 L24.52098,106.219867 L24.52098,106.219867 Z M33.6131725,70.9963038 C33.4062304,70.9754225 33.2016561,70.9775107 33.0003966,70.9963038 L13.4697043,70.9963038 C13.3797294,70.9963038 13.2987521,70.9414905 13.2580267,70.8522231 L9.29866098,62.1217658 L39.1987147,62.1217658 L40.7083975,70.9963038 L33.6131725,70.9963038 L33.6131725,70.9963038 Z M109.863992,212.727896 C109.863992,223.047417 103.120616,231.658851 94.2367863,233.500579 L94.2367863,221.080402 C94.2367863,218.918147 92.6470732,217.165165 90.6851486,217.165165 C88.7232239,217.165165 87.1335109,218.918147 87.1335109,221.080402 L87.1335109,233.500579 C78.2496812,231.658329 71.5063051,223.047417 71.5063051,212.727896 C71.5063051,202.408374 78.2496812,193.79694 87.1335109,191.955212 L87.1335109,204.375389 C87.1335109,206.537644 88.7232239,208.290627 90.6851486,208.290627 C92.6470732,208.290627 94.2367863,206.537644 94.2367863,204.375389 L94.2367863,191.955212 C103.120616,193.79694 109.863992,202.408374 109.863992,212.727896 L109.863992,212.727896 Z M118.597706,158.230924 C116.082199,173.020603 104.349009,183.755139 90.6988816,183.755139 L90.670942,183.755139 C77.0208146,183.755139 65.2876244,173.020603 62.7721178,158.230924 L47.8462421,70.4742722 L61.4295987,70.4742722 C63.4057299,70.4742722 65.1171457,72.0988346 65.4102742,74.2532592 L74.1231518,138.287749 C75.361963,147.391459 82.3222257,153.999335 90.6965138,153.999335 C99.0480714,153.999335 106.008334,147.391459 107.246672,138.287227 L115.959549,74.2527372 C116.252678,72.0988346 117.964094,70.4737501 119.940225,70.4737501 L133.523582,70.4737501 L118.597706,158.230924 L118.597706,158.230924 Z M162.665005,121.111342 C160.445469,121.111342 158.639816,119.120835 158.639816,116.674073 C158.639816,114.22731 160.445469,112.236804 162.665005,112.236804 C164.884542,112.236804 166.690195,114.22731 166.690195,116.674073 C166.690195,119.120835 164.884542,121.111342 162.665005,121.111342 L162.665005,121.111342 Z M164.769943,104.629237 C164.088028,104.484634 163.384804,104.406329 162.665005,104.406329 C160.534496,104.406329 158.542738,105.070875 156.849317,106.219867 L152.33116,78.8267785 L160.514134,78.8267785 L164.769943,104.629237 L164.769943,104.629237 Z M168.111797,70.8527451 C168.071545,70.9409685 167.990568,70.9963038 167.900593,70.9963038 L148.36848,70.9963038 C148.16722,70.9775107 147.96312,70.9754225 147.756178,70.9963038 L140.6619,70.9963038 L142.171582,62.1217658 L172.071636,62.1217658 L168.111797,70.8527451 L168.111797,70.8527451 Z" id="Shape"></path>
                        <path d="M113.178854,35.2371361 C113.178854,29.759458 109.230853,25.2908671 104.308757,25.0778782 C104.188949,25.0643054 104.067719,25.057519 103.944596,25.057519 L77.4257013,25.057519 C77.3025778,25.057519 77.1813486,25.0643054 77.06154,25.0778782 C72.1394438,25.2908671 68.1914433,29.759458 68.1914433,35.2371361 C68.1914433,40.7148141 72.1394438,45.183405 77.06154,45.3963939 C77.1813486,45.4099668 77.3025778,45.4167532 77.4257013,45.4167532 L103.944596,45.4167532 C104.067719,45.4167532 104.188949,45.4099668 104.308757,45.3963939 C109.230853,45.183405 113.178854,40.7148141 113.178854,35.2371361 L113.178854,35.2371361 Z M75.2947187,35.2371361 C75.2947187,33.9419756 76.2508195,32.8879937 77.4257013,32.8879937 C78.600583,32.8879937 79.5566839,33.9419756 79.5566839,35.2371361 C79.5566839,36.5322966 78.600583,37.5862785 77.4257013,37.5862785 C76.2508195,37.5862785 75.2947187,36.5322966 75.2947187,35.2371361 L75.2947187,35.2371361 Z M86.4018735,32.8879937 L94.9684236,32.8879937 C94.8055218,33.6433735 94.7103379,34.427465 94.7103379,35.2371361 C94.7103379,36.0468072 94.8055218,36.8308987 94.9684236,37.5862785 L86.4018735,37.5862785 C86.5647753,36.8308987 86.6599592,36.0468072 86.6599592,35.2371361 C86.6599592,34.427465 86.5647753,33.6433735 86.4018735,32.8879937 L86.4018735,32.8879937 Z M101.813613,35.2371361 C101.813613,33.9419756 102.769714,32.8879937 103.944596,32.8879937 C105.119478,32.8879937 106.075578,33.9419756 106.075578,35.2371361 C106.075578,36.5322966 105.119478,37.5862785 103.944596,37.5862785 C102.769714,37.5862785 101.813613,36.5322966 101.813613,35.2371361 L101.813613,35.2371361 Z" id="Shape"></path>
                        <path d="M90.6851486,137.294323 C92.6470732,137.294323 94.2367863,135.541341 94.2367863,133.379085 L94.2367863,108.321566 C94.2367863,106.159311 92.6470732,104.406329 90.6851486,104.406329 C88.7232239,104.406329 87.1335109,106.159311 87.1335109,108.321566 L87.1335109,133.379085 C87.1335109,135.541341 88.7232239,137.294323 90.6851486,137.294323 L90.6851486,137.294323 Z" id="Shape"></path>
                    </g>
                </g>
            </g>
        </g>
    </g>
</svg>