<?xml version="1.0" encoding="UTF-8"?>
<svg width="197px" height="242px" viewBox="0 0 197 242" version="1.1" xmlns="http://www.w3.org/2000/svg" xmlns:xlink="http://www.w3.org/1999/xlink">
    <!-- Generator: Sketch 40.1 (33804) - http://www.bohemiancoding.com/sketch -->
    <title>travel</title>
    <desc>Created with Sketch.</desc>
    <defs></defs>
    <g id="Page-1" stroke="none" stroke-width="1" fill="none" fill-rule="evenodd">
        <g id="Desktop-HD" transform="translate(-64.000000, -594.000000)" fill="#81019B">
            <g id="travel" transform="translate(64.000000, 594.000000)">
                <g id="Capa_1">
                    <path d="M196.523951,191.84663 C196.523951,182.744486 191.893563,174.976655 185.158711,172.164471 L185.158711,158.43295 L185.158711,158.418855 L185.158711,154.260351 C185.158711,147.495865 180.166529,141.992608 174.030246,141.992608 L151.299765,141.992608 C145.163482,141.992608 140.1713,147.495865 140.1713,154.260351 L140.1713,154.264006 L140.1713,154.2781 L140.1713,170.969018 L140.1713,170.983113 L140.1713,187.674031 L140.1713,187.688126 L140.1713,187.931392 L116.967267,187.931392 L116.967267,183.494123 C116.967267,181.047361 118.77292,179.056854 120.992457,179.056854 L124.78087,179.056854 C128.828317,179.056854 132.120921,175.427168 132.120921,170.965364 L132.120921,162.612858 C132.120921,159.570979 130.588982,156.918536 128.332508,155.536719 L128.332508,144.326089 C132.321234,142.292776 135.223159,138.101384 135.800418,133.117548 L181.607073,133.117548 C183.568524,133.117548 185.158711,131.364565 185.158711,129.20231 L185.158711,120.295406 C185.158711,116.295078 182.449521,112.851235 178.821642,112.280132 L128.332508,104.891819 L128.332508,104.145313 C128.332508,99.6835088 125.039903,96.0538228 120.992457,96.0538228 L113.178854,96.0538228 L113.178854,87.4403006 C113.178854,82.9784962 109.886249,79.3488101 105.838803,79.3488101 L101.813613,79.3488101 L101.813613,69.8300851 C105.096747,68.607487 107.697019,65.7410112 108.806078,62.1217658 L118.638905,62.1217658 C120.705011,67.0471344 125.226482,70.4742722 130.463964,70.4742722 C137.644902,70.4742722 143.486636,64.0344898 143.486636,56.1184019 L143.486636,37.0642468 L151.300238,37.0642468 C153.26169,37.0642468 154.851876,35.3112646 154.851876,33.1490095 L154.851876,20.62025 C154.851876,16.1584455 151.559271,12.5287595 147.511825,12.5287595 L145.624248,12.5287595 L139.101073,1.7435857 C138.442836,0.654105652 137.333778,0 136.146111,0 L124.78087,0 C123.593203,0 122.484145,0.654105652 121.825908,1.7435857 L115.303207,12.5287595 L113.41563,12.5287595 C109.368183,12.5287595 106.075578,16.1584455 106.075578,20.62025 L106.075578,33.1490095 C106.075578,35.3112646 107.665765,37.0642468 109.627216,37.0642468 L117.440819,37.0642468 L117.440819,54.2912911 L108.806078,54.2912911 C107.320072,49.4416172 103.156606,45.9387848 98.2619756,45.9387848 C93.3673454,45.9387848 89.2038789,49.4416172 87.7178737,54.2912911 L79.0831322,54.2912911 L79.0831322,37.0642468 L86.8967351,37.0642468 C88.8581862,37.0642468 90.4483727,35.3112646 90.4483727,33.1490095 L90.4483727,20.62025 C90.4483727,16.1584455 87.1557678,12.5287595 83.1083215,12.5287595 L81.2207445,12.5287595 L74.6980435,1.7435857 C74.0398067,0.654105652 72.9307486,0 71.743081,0 L60.3778404,0 C59.1901728,0 58.0811147,0.654105652 57.4228779,1.7435857 L50.9001769,12.5287595 L49.0125999,12.5287595 C44.9651536,12.5287595 41.6725487,16.1584455 41.6725487,20.62025 L41.6725487,33.1490095 C41.6725487,35.3112646 43.2627353,37.0642468 45.2241864,37.0642468 L53.0377892,37.0642468 L53.0377892,56.1184019 C53.0377892,64.0344898 58.8795229,70.4742722 66.0604607,70.4742722 C71.2974689,70.4742722 75.8194139,67.0471344 77.88552,62.1217658 L87.7183472,62.1217658 C88.8274053,65.7410112 91.4272041,68.607487 94.7108115,69.8300851 L94.7108115,79.3488101 L90.6856221,79.3488101 C86.6381758,79.3488101 83.3455709,82.9784962 83.3455709,87.4403006 L83.3455709,96.0538228 L75.5319681,96.0538228 C71.4845218,96.0538228 68.1919169,99.6835088 68.1919169,104.145313 L68.1919169,104.891819 L17.6667929,112.285875 C14.0744298,112.852279 11.3652406,116.2956 11.3652406,120.295928 L11.3652406,129.202832 C11.3652406,131.365087 12.9554271,133.11807 14.9168782,133.11807 L60.7235332,133.11807 C61.3007927,138.101906 64.2027174,142.293298 68.1914433,144.326611 L68.1914433,154.53494 C66.0822441,154.67119 64.4030298,156.600097 64.4030298,158.959158 L64.4030298,170.965886 C64.4030298,175.42769 67.6956347,179.057376 71.743081,179.057376 L75.5314945,179.057376 C77.7510313,179.057376 79.5566839,181.047883 79.5566839,183.494645 L79.5566839,187.931914 L56.3526511,187.931914 L56.3526511,187.688648 L56.3526511,187.674553 L56.3526511,170.983635 L56.3526511,170.96954 L56.3526511,154.278622 L56.3526511,154.264528 L56.3526511,154.260351 C56.3526511,147.495865 51.3604692,141.992608 45.2241864,141.992608 L22.4937053,141.992608 C16.3574225,141.992608 11.3652406,147.495865 11.3652406,154.260351 L11.3652406,158.418855 L11.3652406,158.43295 L11.3652406,172.164471 C4.63038842,174.976655 0,182.744486 0,191.84663 C0,200.948774 4.63038842,208.716604 11.3652406,211.528789 L11.3652406,225.238906 L11.3652406,225.253001 L11.3652406,229.432908 C11.3652406,236.197394 16.3574225,241.700652 22.4937053,241.700652 L45.2241864,241.700652 C51.3604692,241.700652 56.3526511,236.197394 56.3526511,229.432908 L56.3526511,221.098151 L56.3526511,221.084056 L56.3526511,204.393138 L56.3526511,204.379043 L56.3526511,195.761867 L79.5566839,195.761867 L79.5566839,200.199136 C79.5566839,206.963622 84.5488658,212.46688 90.6851486,212.46688 L105.838803,212.46688 C111.975085,212.46688 116.967267,206.963622 116.967267,200.199136 L116.967267,195.761867 L140.1713,195.761867 L140.1713,204.379043 L140.1713,204.393138 L140.1713,221.084056 L140.1713,221.098151 L140.1713,229.432908 C140.1713,236.197394 145.163482,241.700652 151.299765,241.700652 L174.030246,241.700652 C180.166529,241.700652 185.158711,236.197394 185.158711,229.432908 L185.158711,225.253001 L185.158711,225.238906 L185.158711,211.528789 C191.893563,208.716604 196.523951,200.948774 196.523951,191.84663 L196.523951,191.84663 Z M126.681707,7.83047468 L134.245748,7.83047468 L137.087058,12.5287595 L123.840397,12.5287595 L126.681707,7.83047468 L126.681707,7.83047468 Z M113.178854,20.62025 C113.178854,20.4761693 113.284929,20.3592342 113.41563,20.3592342 L117.217303,20.3592342 L117.227247,20.3592342 L143.719149,20.3592342 C143.721517,20.3592342 143.724358,20.3597562 143.726726,20.3597562 C143.729094,20.3597562 143.730988,20.3592342 143.733356,20.3592342 L147.512298,20.3592342 C147.642999,20.3592342 147.749074,20.4761693 147.749074,20.62025 L147.749074,29.2337722 L113.179801,29.2337722 L113.179801,20.62025 L113.178854,20.62025 Z M136.382887,37.0642468 L136.382887,56.1184019 C136.382887,59.716766 133.727682,62.6437975 130.463491,62.6437975 C127.199299,62.6437975 124.544094,59.716766 124.544094,56.1184019 L124.544094,37.0642468 L136.382887,37.0642468 L136.382887,37.0642468 Z M62.2786769,7.83047468 L69.8427181,7.83047468 L72.6840282,12.5287595 L59.4373668,12.5287595 L62.2786769,7.83047468 L62.2786769,7.83047468 Z M48.775824,20.62025 C48.775824,20.4761693 48.8818996,20.3592342 49.0125999,20.3592342 L52.8142729,20.3592342 L52.8242174,20.3592342 L79.3156461,20.3592342 C79.3180138,20.3592342 79.3208551,20.3597562 79.3232229,20.3597562 C79.3255906,20.3597562 79.3274849,20.3592342 79.3298526,20.3592342 L83.1087951,20.3592342 C83.2394954,20.3592342 83.3455709,20.4761693 83.3455709,20.62025 L83.3455709,29.2337722 L48.7762976,29.2337722 L48.7762976,20.62025 L48.775824,20.62025 Z M66.0604607,62.6437975 C62.7962689,62.6437975 60.1410646,59.716766 60.1410646,56.1184019 L60.1410646,37.0642468 L71.9798568,37.0642468 L71.9798568,56.1184019 C71.9798568,59.716766 69.3246525,62.6437975 66.0604607,62.6437975 L66.0604607,62.6437975 Z M98.2619756,53.7692595 C100.481512,53.7692595 102.287165,55.7597662 102.287165,58.2065285 C102.287165,60.6532908 100.481512,62.6437975 98.2619756,62.6437975 C96.0424388,62.6437975 94.2367863,60.6532908 94.2367863,58.2065285 C94.2367863,55.7597662 96.0424388,53.7692595 98.2619756,53.7692595 L98.2619756,53.7692595 Z M49.2493757,184.127348 L18.4685159,187.520554 L18.4685159,178.685168 L49.2493757,175.291962 L49.2493757,184.127348 L49.2493757,184.127348 Z M18.4685159,195.389659 L49.2493757,191.996453 L49.2493757,200.831838 L18.4685159,204.225044 L18.4685159,195.389659 L18.4685159,195.389659 Z M49.2493757,158.586428 L49.2493757,167.421813 L18.4685159,170.815019 L18.4685159,161.979633 L49.2493757,158.586428 L49.2493757,158.586428 Z M18.4685159,212.094671 L49.2493757,208.701466 L49.2493757,217.536851 L18.4685159,220.930057 L18.4685159,212.094671 L18.4685159,212.094671 Z M22.4937053,149.823082 L45.2241864,149.823082 C46.2129623,149.823082 47.1183931,150.219826 47.8201967,150.874454 L18.4756192,154.109484 C18.5485461,151.732674 20.3205766,149.823082 22.4937053,149.823082 L22.4937053,149.823082 Z M7.10327535,191.84663 C7.10327535,187.459998 8.78201609,183.501954 11.3652406,181.143415 L11.3652406,191.828881 L11.3652406,191.842976 L11.3652406,202.549845 C8.78201609,200.191306 7.10327535,196.233262 7.10327535,191.84663 L7.10327535,191.84663 Z M45.2241864,233.870177 L22.4937053,233.870177 C20.2741685,233.870177 18.4685159,231.879671 18.4685159,229.432908 L18.4685159,228.799684 L49.2493757,225.406478 L49.2493757,229.432908 C49.2493757,231.879671 47.4437231,233.870177 45.2241864,233.870177 L45.2241864,233.870177 Z M122.886663,137.816354 C119.622472,137.816354 116.967267,134.889323 116.967267,131.290959 C116.967267,127.692595 119.622472,124.765563 122.886663,124.765563 C126.150855,124.765563 128.80606,127.692595 128.80606,131.290959 C128.80606,134.889323 126.150855,137.816354 122.886663,137.816354 L122.886663,137.816354 Z M177.851808,120.037523 C177.967828,120.055794 178.055435,120.166987 178.055435,120.29645 L178.055435,125.287595 L134.711723,125.287595 C133.41277,122.190381 131.14209,119.687761 128.332508,118.255307 L128.332508,112.790679 L177.851808,120.037523 L177.851808,120.037523 Z M90.4483727,87.4403006 C90.4483727,87.2962199 90.5544483,87.1792848 90.6851486,87.1792848 L105.838803,87.1792848 C105.969503,87.1792848 106.075578,87.2962199 106.075578,87.4403006 L106.075578,96.0538228 L90.4483727,96.0538228 L90.4483727,87.4403006 L90.4483727,87.4403006 Z M75.5314945,103.884297 L120.992457,103.884297 C121.123157,103.884297 121.229233,104.001233 121.229233,104.145313 L121.229233,117.055156 C114.828708,117.956183 109.863992,123.994001 109.863992,131.290959 C109.863992,138.587917 114.828708,144.625735 121.229233,145.526762 L121.229233,154.521367 L75.2947187,154.521367 L75.2947187,145.526762 C81.6952433,144.625735 86.6599592,138.587917 86.6599592,131.290959 C86.6599592,123.994001 81.6952433,117.956183 75.2947187,117.055156 L75.2947187,104.145313 C75.2947187,104.001233 75.4007942,103.884297 75.5314945,103.884297 L75.5314945,103.884297 Z M18.4685159,120.295928 C18.4685159,120.166465 18.556123,120.055794 18.6366267,120.042743 L68.1914433,112.790679 L68.1914433,118.255307 C65.3818611,119.687239 63.1116543,122.190381 61.8122285,125.287595 L18.4685159,125.287595 L18.4685159,120.295928 L18.4685159,120.295928 Z M73.6372878,124.765563 C76.9014795,124.765563 79.5566839,127.692595 79.5566839,131.290959 C79.5566839,134.889323 76.9014795,137.816354 73.6372878,137.816354 C70.373096,137.816354 67.7178916,134.889323 67.7178916,131.290959 C67.7178916,127.692595 70.373096,124.765563 73.6372878,124.765563 L73.6372878,124.765563 Z M71.5063051,170.965364 L71.5063051,162.351842 L124.78087,162.351842 C124.911571,162.351842 125.017646,162.468777 125.017646,162.612858 L125.017646,170.965364 C125.017646,171.109445 124.911571,171.22638 124.78087,171.22638 L71.743081,171.22638 C71.6123807,171.22638 71.5063051,171.109445 71.5063051,170.965364 L71.5063051,170.965364 Z M109.863992,200.199136 C109.863992,202.645898 108.058339,204.636405 105.838803,204.636405 L90.6851486,204.636405 C88.4656118,204.636405 86.6599592,202.645898 86.6599592,200.199136 L86.6599592,183.494123 C86.6599592,181.929595 86.3900348,180.433974 85.9036972,179.056854 L110.620728,179.056854 C110.13439,180.433974 109.864466,181.929595 109.864466,183.494123 L109.864466,200.199136 L109.863992,200.199136 Z M178.055435,161.979633 L178.055435,170.815019 L147.274576,167.421813 L147.274576,158.586428 L178.055435,161.979633 L178.055435,161.979633 Z M147.274576,175.29144 L178.055435,178.684646 L178.055435,187.520031 L147.274576,184.126826 L147.274576,175.29144 L147.274576,175.29144 Z M178.055435,195.389659 L178.055435,204.225044 L147.274576,200.831838 L147.274576,191.996453 L178.055435,195.389659 L178.055435,195.389659 Z M147.274576,208.701466 L178.055435,212.094671 L178.055435,220.930057 L147.274576,217.536851 L147.274576,208.701466 L147.274576,208.701466 Z M189.420676,191.84663 C189.420676,196.233262 187.741935,200.191306 185.158711,202.549845 L185.158711,191.842976 L185.158711,191.828881 L185.158711,181.143415 C187.741935,183.501954 189.420676,187.459998 189.420676,191.84663 L189.420676,191.84663 Z M174.030246,149.823082 C176.203375,149.823082 177.975405,151.732674 178.048332,154.109484 L148.703755,150.874454 C149.405558,150.219826 150.310989,149.823082 151.299765,149.823082 L174.030246,149.823082 L174.030246,149.823082 Z M174.030246,233.870177 L151.299765,233.870177 C149.080228,233.870177 147.274576,231.879671 147.274576,229.432908 L147.274576,225.406478 L178.055435,228.799684 L178.055435,229.432908 C178.055435,231.879671 176.249783,233.870177 174.030246,233.870177 L174.030246,233.870177 Z" id="Shape"></path>
                </g>
            </g>
        </g>
    </g>
</svg>