<?xml version="1.0" encoding="UTF-8"?>
<svg width="127px" height="235px" viewBox="0 0 127 235" version="1.1" xmlns="http://www.w3.org/2000/svg" xmlns:xlink="http://www.w3.org/1999/xlink">
    <!-- Generator: Sketch 40.1 (33804) - http://www.bohemiancoding.com/sketch -->
    <title>robotrace</title>
    <desc>Created with Sketch.</desc>
    <defs></defs>
    <g id="Page-1" stroke="none" stroke-width="1" fill="none" fill-rule="evenodd">
        <g id="Desktop-HD" transform="translate(-816.000000, -287.000000)" fill="#81019B">
            <g id="robotrace" transform="translate(816.000000, 287.000000)">
                <g id="Capa_1">
                    <g id="Group">
                        <path d="M63.2238861,173.272222 C58.5092055,173.272222 54.0772352,175.296138 50.7434313,178.971241 C45.2322367,185.046646 43.9777983,194.23127 47.621305,201.826831 L63.2238861,234.34888 L78.8269407,201.826831 C82.4704474,194.231792 81.216009,185.046646 75.7048144,178.971763 C72.3710105,175.296138 67.9385667,173.272222 63.2238861,173.272222 L63.2238861,173.272222 Z M74.6407438,199.386333 L63.2238861,223.182623 L51.807502,199.386333 C49.1414059,193.828784 50.0596227,187.107626 54.0914418,182.662527 C56.5307065,179.973542 59.7745356,178.492538 63.2238861,178.492538 C66.6737102,178.492538 69.9170657,179.973542 72.3563304,182.662527 C76.3886231,187.108149 77.3068398,193.828784 74.6407438,199.386333 L74.6407438,199.386333 Z" id="Shape"></path>
                        <path d="M55.6655276,29.5809232 C59.352601,29.5809232 62.352551,26.2743748 62.352551,22.2093143 C62.352551,18.1442539 59.352601,14.8377055 55.6655276,14.8377055 C51.9784541,14.8377055 48.9785042,18.1442539 48.9785042,22.2093143 C48.9785042,26.2743748 51.9779806,29.5809232 55.6655276,29.5809232 L55.6655276,29.5809232 Z M55.6655276,20.0574999 C56.741437,20.0574999 57.6170341,21.0227364 57.6170341,22.2087923 C57.6170341,23.3948482 56.741437,24.3600847 55.6655276,24.3600847 C54.5896181,24.3600847 53.7140211,23.3948482 53.7140211,22.2087923 C53.7140211,21.0227364 54.5891446,20.0574999 55.6655276,20.0574999 L55.6655276,20.0574999 Z" id="Shape"></path>
                        <path d="M70.7822446,14.8371834 C67.0951712,14.8371834 64.0956948,18.1437319 64.0956948,22.2087923 C64.0956948,26.2738527 67.0951712,29.5804012 70.7822446,29.5804012 C74.4693181,29.5804012 77.469268,26.2738527 77.469268,22.2087923 C77.469268,18.1437319 74.4697916,14.8371834 70.7822446,14.8371834 L70.7822446,14.8371834 Z M70.7822446,24.3606067 C69.7068087,24.3606067 68.8312117,23.3953702 68.8312117,22.2093143 C68.8312117,21.0232584 69.7068087,20.0580219 70.7822446,20.0580219 C71.8581541,20.0580219 72.7337511,21.0232584 72.7337511,22.2093143 C72.7337511,23.3953702 71.8586276,24.3606067 70.7822446,24.3606067 L70.7822446,24.3606067 Z" id="Shape"></path>
                        <rect id="Rectangle-path" x="48.9780306" y="31.5025217" width="28.4912374" height="5.22031646"></rect>
                        <path d="M38.8468658,144.53438 L30.1373031,169.071433 L96.309522,169.071433 L87.5999593,144.53438 L38.8468658,144.53438 L38.8468658,144.53438 Z M37.0753089,163.851639 L42.0793296,149.755218 L84.367969,149.755218 L89.3719897,163.851639 L37.0753089,163.851639 L37.0753089,163.851639 Z" id="Shape"></path>
                        <path d="M117.040194,72.2356069 L126.274926,72.2356069 L126.274926,54.4917513 L117.040194,54.4917513 L117.040194,47.4464122 L105.845906,47.4464122 L106.755599,39.6117613 L86.5453597,39.6117613 L86.5453597,27.1456456 L98.7364744,27.1456456 L98.7364744,21.9253291 L86.2905889,21.9253291 C84.6255812,9.53751817 74.9168244,0 63.2238861,0 C51.5309478,0 41.822191,9.53699613 40.1571833,21.9253291 L27.7084565,21.9253291 L27.7084565,27.1456456 L39.9024125,27.1456456 L39.9024125,39.6117613 L19.6916999,39.6117613 L20.6013927,47.4464122 L9.35832849,47.4464122 L9.35832849,54.4917513 L0.124070543,54.4917513 L0.124070543,72.2356069 L9.35832849,72.2356069 L9.35974915,133.845782 C4.18524983,135.051675 0.289813634,140.123734 0.289813634,146.18139 C0.289813634,153.133807 5.42074619,158.790542 11.7275076,158.790542 L11.7275076,153.570225 C8.03191021,153.570225 5.02533053,150.255324 5.02533053,146.18139 C5.02533053,142.107455 8.03238376,138.792554 11.7275076,138.792554 C15.4235785,138.792554 18.4301582,142.107455 18.4301582,146.18139 L23.1656751,146.18139 C23.1656751,140.123734 19.2697654,135.051153 14.095266,133.845782 L14.095266,79.2846002 L24.2984108,79.2846002 L29.7537262,126.267448 L96.694046,126.267448 L102.149361,79.2846002 L112.303257,79.2846002 L112.303257,133.845782 C107.128757,135.051675 103.233321,140.123734 103.233321,146.18139 L107.968838,146.18139 C107.968838,142.107455 110.975891,138.792554 114.671015,138.792554 C118.367086,138.792554 121.373666,142.107455 121.373666,146.18139 C121.373666,150.255324 118.366613,153.570225 114.671015,153.570225 L114.671015,158.790542 C120.977777,158.790542 126.109183,153.134329 126.109183,146.18139 C126.109183,140.123734 122.213273,135.051153 117.038774,133.845782 L117.040194,72.2356069 L117.040194,72.2356069 Z M121.539409,59.7120678 L121.539409,67.0152905 L117.040194,67.0152905 L117.040194,59.7120678 L121.539409,59.7120678 L121.539409,59.7120678 Z M44.6379294,25.7090145 C44.6379294,14.4112056 52.975754,5.22031646 63.2238861,5.22031646 C73.4720182,5.22031646 81.8098428,14.4112056 81.8098428,25.7090145 L81.8098428,39.6117613 L44.6379294,39.6117613 L44.6379294,25.7090145 L44.6379294,25.7090145 Z M4.85958744,67.0152905 L4.85958744,59.7120678 L9.35832849,59.7120678 L9.35832849,67.0152905 L4.85958744,67.0152905 L4.85958744,67.0152905 Z M14.0938454,74.0642838 L14.0938454,52.6662066 L21.2075389,52.6662066 L23.6922646,74.0642838 L14.0938454,74.0642838 L14.0938454,74.0642838 Z M92.5263176,121.047132 L33.9214546,121.047132 L25.0721942,44.8320777 L101.375578,44.8320777 L92.5263176,121.047132 L92.5263176,121.047132 Z M105.23976,52.6667287 L112.304677,52.6667287 L112.304677,74.0648058 L102.755508,74.0648058 L105.23976,52.6667287 L105.23976,52.6667287 Z" id="Shape"></path>
                        <path d="M63.2238861,52.8854599 C49.5472397,52.8854599 38.4201957,65.1516375 38.4201957,80.2284335 C38.4201957,95.3052294 49.5472397,107.571407 63.2238861,107.571407 C76.9005324,107.571407 88.0275765,95.3052294 88.0275765,80.2284335 C88.0275765,65.1516375 76.9005324,52.8854599 63.2238861,52.8854599 L63.2238861,52.8854599 Z M43.1561861,80.2284335 C43.1561861,68.03012 52.1588773,58.1057764 63.2243596,58.1057764 C65.604904,58.1057764 67.8893173,58.5677744 70.0098818,59.4103335 L48.756882,82.8385917 L66.2584053,82.8385917 L51.9992904,98.5580086 C46.6670984,94.5769953 43.1561861,87.8464413 43.1561861,80.2284335 L43.1561861,80.2284335 Z M63.2238861,102.351091 C60.8433418,102.351091 58.5589284,101.889093 56.4383639,101.046533 L77.6908902,77.6182752 L60.1893669,77.6182752 L74.4489553,61.8988583 C79.7811474,65.8793496 83.2920596,72.6104257 83.2920596,80.2284335 C83.2920596,92.4267469 74.289842,102.351091 63.2238861,102.351091 L63.2238861,102.351091 Z" id="Shape"></path>
                        <rect id="Rectangle-path" x="38.7185333" y="128.616069" width="49.0102321" height="5.22031646"></rect>
                        <rect id="Rectangle-path" x="38.7185333" y="136.498747" width="49.0102321" height="5.22031646"></rect>
                    </g>
                </g>
            </g>
        </g>
    </g>
</svg>