<?xml version="1.0" encoding="UTF-8"?>
<svg width="190px" height="242px" viewBox="0 0 190 242" version="1.1" xmlns="http://www.w3.org/2000/svg" xmlns:xlink="http://www.w3.org/1999/xlink">
    <!-- Generator: Sketch 40.1 (33804) - http://www.bohemiancoding.com/sketch -->
    <title>robotfighter</title>
    <desc>Created with Sketch.</desc>
    <defs></defs>
    <g id="Page-1" stroke="none" stroke-width="1" fill="none" fill-rule="evenodd">
        <g id="Desktop-HD" transform="translate(-689.000000, -631.000000)" fill="#81019B">
            <g id="robotfighter" transform="translate(689.000000, 631.000000)">
                <g id="Capa_1">
                    <g id="Group">
                        <path d="M180.403778,73.6920752 C178.735456,73.6920752 177.174629,74.1937476 175.825954,75.0556219 L171.831072,70.6517629 L179.325501,62.3900901 L166.267787,47.9961115 C162.869106,44.2494904 158.350476,42.1864213 153.543926,42.1864213 C149.688268,42.1864213 146.01919,43.51708 142.963361,45.9763711 C141.416268,38.8057444 138.554121,32.0496109 134.460267,26.0237996 L133.749939,24.9781702 L119.774008,24.9781702 C118.576396,10.985634 107.862763,0 94.8618745,0 C81.8609864,0 71.147353,10.985634 69.9492672,24.9781702 L55.9681271,24.9781702 L55.2577996,26.0237996 C51.1658394,32.0470007 48.3051137,38.8031343 46.7584938,45.975327 C43.7031383,43.516558 40.0345334,42.1864213 36.1793491,42.1864213 C31.3727994,42.1864213 26.8541692,44.2500124 23.4554887,47.9961115 L10.398248,62.3900901 L17.892677,70.6517629 L13.897795,75.0556219 C12.5486462,74.1937476 10.9882934,73.6920752 9.31997081,73.6920752 C4.26575362,73.6920752 0.154377851,78.224876 0.154377851,83.7959977 C0.154377851,89.3671194 4.26622717,93.8999202 9.31997081,93.8999202 C10.9892405,93.8999202 12.5505404,93.3977258 13.9001627,92.5348075 L25.4339877,105.253586 C23.3342595,108.334617 22.088345,112.160587 22.088345,116.302386 C22.088345,126.465298 29.5884567,134.733236 38.8080345,134.733236 C48.0271388,134.733236 55.5272505,126.465298 55.5272505,116.302386 C55.5272505,106.139474 48.0271388,97.871015 38.8080345,97.871015 C35.0499283,97.871015 31.5778473,99.2455243 28.7824717,101.561779 L17.2486467,88.8429997 C18.0309541,87.3557315 18.4860373,85.6351152 18.4860373,83.7959977 C18.4860373,81.9558362 18.030007,80.2341758 17.2472261,78.7463856 L21.2416346,74.3430487 L25.4979172,79.0350691 L45.4434408,57.0476182 C45.4292342,57.5894871 45.4140806,58.1313559 45.4140806,58.676357 C45.4140806,65.192878 46.4464233,71.5679285 48.4826955,77.6261057 C50.7112298,84.2506873 54.0649229,90.2462207 58.2757445,95.347514 L58.2757445,142.423806 L65.595433,142.423806 L65.595433,151.172012 C61.6872109,152.327268 58.7971249,156.254512 58.7971249,160.921997 C58.7971249,165.589482 61.6872109,169.516726 65.595433,170.671982 L65.595433,178.837079 L58.2752709,178.837079 L58.2752709,209.870294 L65.5949594,209.870294 L65.5949594,219.638028 L59.1120368,219.638028 L50.1836932,241.511676 L85.7417425,241.511676 L76.8133989,219.638028 L70.3304763,219.638028 L70.3304763,209.870294 L77.6501648,209.870294 L77.6501648,178.837601 L70.3304763,178.837601 L70.3304763,170.672504 C74.2386984,169.517248 77.1283108,165.590004 77.1283108,160.922519 C77.1283108,156.255034 74.2382248,152.327268 70.3304763,151.172534 L70.3304763,142.424328 L76.4776508,142.424328 L94.8618745,114.971728 L113.246098,142.424328 L119.393273,142.424328 L119.393273,151.172534 C115.485051,152.32779 112.595438,156.255034 112.595438,160.922519 C112.595438,165.590004 115.485524,169.517248 119.393273,170.672504 L119.393273,178.837601 L112.073584,178.837601 L112.073584,209.870816 L119.393273,209.870816 L119.393273,219.638551 L112.91035,219.638551 L103.982006,241.512198 L139.540056,241.512198 L130.611712,219.638551 L124.12879,219.638551 L124.12879,209.870816 L131.448478,209.870816 L131.448478,178.837601 L124.12879,178.837601 L124.12879,170.672504 C128.037012,169.517248 130.927098,165.590004 130.927098,160.922519 C130.927098,156.255034 128.037012,152.327268 124.12879,151.172534 L124.12879,142.424328 L131.448478,142.424328 L131.448478,95.3469919 C135.659773,90.2456987 139.013466,84.2501653 141.242001,77.6261057 C143.277799,71.5684505 144.310615,65.1934 144.310615,58.676879 C144.310615,58.1324 144.295462,57.5900091 144.281255,57.0481403 L164.226779,79.0355911 L168.483061,74.3435707 L172.47747,78.7469076 C171.694689,80.2346978 171.238659,81.9563582 171.238659,83.7965198 C171.238659,85.6356372 171.693742,87.3567756 172.476049,88.8435217 L160.942224,101.562301 C158.146849,99.2460463 154.674768,97.871537 150.916662,97.871537 C141.697557,97.871537 134.197446,106.139474 134.197446,116.302908 C134.197446,126.46582 141.697557,134.733758 150.916662,134.733758 C160.135766,134.733758 167.636351,126.46582 167.636351,116.302908 C167.636351,112.161631 166.390437,108.335139 164.290708,105.254109 L175.824533,92.5353295 C177.173682,93.3982478 178.735456,93.9004423 180.404725,93.9004423 C185.458942,93.9004423 189.570318,89.3676415 189.570318,83.7965198 C189.570318,78.225398 185.457995,73.6920752 180.403778,73.6920752 L180.403778,73.6920752 Z M9.31949725,88.6801258 C6.87644409,88.6801258 4.8894212,86.489159 4.8894212,83.7965198 C4.8894212,81.1038805 6.87691764,78.9129137 9.31949725,78.9129137 C11.7620769,78.9129137 13.7495733,81.1038805 13.7495733,83.7965198 C13.7495733,86.489159 11.7625504,88.6801258 9.31949725,88.6801258 L9.31949725,88.6801258 Z M50.7907865,116.302386 C50.7907865,123.586816 45.4150277,129.512919 38.8070874,129.512919 C32.1991471,129.512919 26.8229148,123.586294 26.8229148,116.302386 C26.8229148,109.017957 32.1991471,103.091331 38.8070874,103.091331 C45.4150277,103.091331 50.7907865,109.017435 50.7907865,116.302386 L50.7907865,116.302386 Z M25.4974436,71.6524976 L17.095216,62.3906121 L26.8039727,51.6879193 C31.6446181,46.3511898 39.3284678,46.0118692 44.5313802,50.6699576 L25.4974436,71.6524976 L25.4974436,71.6524976 Z M78.4177921,236.292404 L57.5071701,236.292404 L62.1735484,224.859389 L73.7509402,224.859389 L78.4177921,236.292404 L78.4177921,236.292404 Z M72.9146479,204.6505 L63.0107878,204.6505 L63.0107878,184.057918 L72.9146479,184.057918 L72.9146479,204.6505 L72.9146479,204.6505 Z M72.3927939,160.922519 C72.3927939,163.61568 70.4052975,165.806125 67.9627179,165.806125 C65.5201382,165.806125 63.5321682,163.615158 63.5321682,160.922519 C63.5321682,158.22988 65.5196647,156.038391 67.9627179,156.038391 C70.405771,156.038391 72.3927939,158.22988 72.3927939,160.922519 L72.3927939,160.922519 Z M132.216105,236.292404 L111.305483,236.292404 L115.971862,224.859389 L127.549253,224.859389 L132.216105,236.292404 L132.216105,236.292404 Z M126.712961,204.6505 L116.809101,204.6505 L116.809101,184.057918 L126.712961,184.057918 L126.712961,204.6505 L126.712961,204.6505 Z M126.191581,160.922519 C126.191581,163.61568 124.204084,165.806125 121.761031,165.806125 C119.317978,165.806125 117.330955,163.615158 117.330955,160.922519 C117.330955,158.22988 119.318452,156.038391 121.761031,156.038391 C124.203611,156.038391 126.191581,158.22988 126.191581,160.922519 L126.191581,160.922519 Z M94.8618745,5.22031646 C105.249231,5.22031646 113.833776,13.8703808 115.011499,24.9781702 L74.7122501,24.9781702 C75.8899731,13.8703808 84.4745182,5.22031646 94.8618745,5.22031646 L94.8618745,5.22031646 Z M131.361818,30.1984866 C132.146967,31.4184746 132.871501,32.6729166 133.547259,33.9518942 L56.1717543,33.9518942 C56.8475126,32.6723946 57.5715731,31.4179526 58.3567218,30.1984866 L131.361818,30.1984866 L131.361818,30.1984866 Z M74.0871619,137.204011 L63.0107878,137.204011 L63.0107878,100.367892 C68.4130655,105.386183 74.789439,109.145332 81.765329,111.250686 C84.5573897,112.097421 87.4233245,112.663304 90.32667,112.954597 L74.0871619,137.204011 L74.0871619,137.204011 Z M94.8618745,107.966585 C90.8333703,107.966585 86.8498534,107.378255 83.0183467,106.215691 C79.3828904,105.11838 75.9292779,103.521485 72.7181239,101.500701 C77.2755854,92.906494 85.7469516,87.4669243 94.8618745,87.4669243 C103.976797,87.4669243 112.44769,92.905972 117.005151,101.499657 C113.793524,103.520963 110.338964,105.118902 106.702561,106.216735 C102.874369,107.378255 98.8903787,107.966585 94.8618745,107.966585 L94.8618745,107.966585 Z M115.636587,137.204011 L99.397079,112.954597 C102.300424,112.663304 105.165886,112.097421 107.956052,111.251208 C114.932889,109.14481 121.310683,105.385138 126.712961,100.366848 L126.712961,137.204011 L115.636587,137.204011 L115.636587,137.204011 Z M136.801506,75.8115237 C133.677486,85.0989887 128.109939,93.021863 120.991983,98.6791199 C115.568869,88.6101736 105.592082,82.2471298 94.8618745,82.2471298 C84.1311932,82.2471298 74.1544062,88.6101736 68.7317658,98.679642 C61.6142839,93.0234291 56.0467367,85.1000328 52.9227162,75.8120457 C51.0824943,70.3369778 50.1495975,64.5721824 50.1495975,58.676879 C50.1495975,51.8654101 51.3940913,45.2726724 53.7826861,39.1727327 L135.939169,39.1727327 C138.330131,45.2742385 139.575572,51.8674982 139.575572,58.676879 C139.574625,64.5716603 138.641728,70.3369778 136.801506,75.8115237 L136.801506,75.8115237 Z M145.191895,50.6694356 C147.547341,48.5557295 150.46584,47.4067378 153.5444,47.4067378 C157.086093,47.4067378 160.415161,48.926894 162.919303,51.6879193 L172.628059,62.3906121 L164.226305,71.6524976 L145.191895,50.6694356 L145.191895,50.6694356 Z M150.916662,129.512919 C144.308721,129.512919 138.932962,123.586294 138.932962,116.302386 C138.932962,109.017957 144.309195,103.091331 150.916662,103.091331 C157.524602,103.091331 162.900834,109.017957 162.900834,116.302386 C162.900361,123.586294 157.524602,129.512919 150.916662,129.512919 L150.916662,129.512919 Z M180.403778,88.6801258 C177.960725,88.6801258 175.973702,86.489159 175.973702,83.7965198 C175.973702,81.1038805 177.961199,78.9129137 180.403778,78.9129137 C182.846358,78.9129137 184.833854,81.1038805 184.833854,83.7965198 C184.833854,86.489159 182.846831,88.6801258 180.403778,88.6801258 L180.403778,88.6801258 Z" id="Shape"></path>
                        <path d="M85.3922613,13.1337942 C84.7671731,13.1337942 84.1562914,13.4156913 83.7158884,13.9011807 C83.2754853,14.3866701 83.0245029,15.0600909 83.0245029,15.7439524 C83.0245029,16.4330342 83.2754853,17.106455 83.7158884,17.5919444 C84.1562914,18.0774339 84.7671731,18.3541106 85.3922613,18.3541106 C86.0126141,18.3541106 86.6234957,18.0774339 87.0638988,17.5919444 C87.5043019,17.106455 87.7600198,16.4330342 87.7600198,15.7439524 C87.7600198,15.0600909 87.5043019,14.3866701 87.0638988,13.9011807 C86.6234957,13.4156913 86.0126141,13.1337942 85.3922613,13.1337942 L85.3922613,13.1337942 Z" id="Shape"></path>
                        <path d="M94.8632951,13.1337942 C94.2382069,13.1337942 93.6273252,13.4156913 93.1869222,13.9011807 C92.7465191,14.3866701 92.4955367,15.0600909 92.4955367,15.7439524 C92.4955367,16.4330342 92.7465191,17.106455 93.1869222,17.5919444 C93.6273252,18.0774339 94.2382069,18.3541106 94.8632951,18.3541106 C95.4836479,18.3541106 96.0945295,18.0774339 96.5349326,17.5919444 C96.9753357,17.106455 97.2310536,16.4330342 97.2310536,15.7439524 C97.2310536,15.0600909 96.9753357,14.3866701 96.5349326,13.9011807 C96.0945295,13.4156913 95.4836479,13.1337942 94.8632951,13.1337942 L94.8632951,13.1337942 Z" id="Shape"></path>
                        <path d="M104.334329,13.1337942 C103.709241,13.1337942 103.098359,13.4156913 102.657956,13.9011807 C102.217553,14.3866701 101.96657,15.0600909 101.96657,15.7439524 C101.96657,16.4330342 102.217553,17.106455 102.657956,17.5919444 C103.098359,18.0774339 103.709241,18.3541106 104.334329,18.3541106 C104.959417,18.3541106 105.565563,18.0774339 106.005966,17.5919444 C106.446369,17.106455 106.702087,16.4330342 106.702087,15.7439524 C106.702087,15.0600909 106.446369,14.3866701 106.005966,13.9011807 C105.565563,13.4156913 104.959417,13.1337942 104.334329,13.1337942 L104.334329,13.1337942 Z" id="Shape"></path>
                        <path d="M123.623983,47.2751858 C118.970865,47.2751858 115.066431,50.8296993 114.000466,55.6021126 L76.5969858,55.6021126 C75.531021,50.8296993 71.6265873,47.2751858 66.9734684,47.2751858 C61.5029993,47.2751858 57.0520869,52.1812392 57.0520869,58.2122708 C57.0520869,64.2433024 61.5025257,69.1493558 66.9734684,69.1493558 C71.6265873,69.1493558 75.531021,65.5948424 76.5969858,60.8224291 L114.000466,60.8224291 C115.066431,65.5948424 118.970865,69.1493558 123.623983,69.1493558 C129.094453,69.1493558 133.545365,64.2433024 133.545365,58.2122708 C133.545365,52.1812392 129.094453,47.2751858 123.623983,47.2751858 L123.623983,47.2751858 Z M66.9729948,63.9285174 C64.1136897,63.9285174 61.7871303,61.3637759 61.7871303,58.2117488 C61.7871303,55.0597217 64.1136897,52.4949803 66.9729948,52.4949803 C69.8322999,52.4949803 72.1588594,55.0597217 72.1588594,58.2117488 C72.1588594,61.3637759 69.8322999,63.9285174 66.9729948,63.9285174 L66.9729948,63.9285174 Z M123.623983,63.9285174 C120.764678,63.9285174 118.438119,61.3637759 118.438119,58.2117488 C118.438119,55.0597217 120.764678,52.4949803 123.623983,52.4949803 C126.483289,52.4949803 128.809848,55.0597217 128.809848,58.2117488 C128.809848,61.3637759 126.483289,63.9285174 123.623983,63.9285174 L123.623983,63.9285174 Z" id="Shape"></path>
                    </g>
                </g>
            </g>
        </g>
    </g>
</svg>